<?xml version="1.0" encoding="iso-8859-1"?>
<!-- Generator: Adobe Illustrator 19.0.0, SVG Export Plug-In . SVG Version: 6.00 Build 0)  -->
<svg version="1.1" id="Capa_1" xmlns="http://www.w3.org/2000/svg" xmlns:xlink="http://www.w3.org/1999/xlink" x="0px" y="0px"
	 viewBox="0 0 512 512" style="enable-background:new 0 0 512 512;" xml:space="preserve">
<g>
	<g>
		<rect x="373.404" y="256.754" width="15.074" height="255.246"/>
	</g>
</g>
<g>
	<g>
		<rect x="336.061" y="337.146" width="15.074" height="174.854"/>
	</g>
</g>
<g>
	<g>
		<path d="M451.358,415.399l-5.838,13.898c12.151,5.103,20.002,16.918,20.002,30.099V512h15.074v-52.604
			C480.597,440.128,469.12,422.859,451.358,415.399z"/>
	</g>
</g>
<g>
	<g>
		<path d="M250.976,0C154.561,0,76.122,78.439,76.122,174.854v62.809c0,69.195,55.138,125.845,124.106,128.983v7.84l-134.966,39.24
			c-20.252,6.151-33.858,24.506-33.858,45.671V512h15.074v-52.604c0-14.482,9.31-27.04,23.08-31.222l145.745-42.373v-38.926
			c12.403,5.687,26.186,8.862,40.699,8.862c14.133,0,27.985-3.041,40.699-8.856V512h15.074V338.412v-10.31v-92.388l-0.133-0.696
			c-10.835-56.988-60.859-98.35-118.949-98.35h-34.669v121.091c0,33.318,16.721,62.799,42.206,80.508v13.293
			c-60.654-3.119-109.032-53.013-109.032-113.897v-62.809c0-88.103,71.677-159.78,159.78-159.78s159.78,71.677,159.78,159.78
			v322.073h-0.502V512h0.502h14.571h0.502V174.854C425.83,78.439,347.391,0,250.976,0z M173.096,257.759V151.741h19.596
			c50.626,0,94.255,35.874,104.008,85.406v90.955v1.884c-12.388,6.997-26.374,10.677-40.699,10.677
			C210.287,340.663,173.096,303.472,173.096,257.759z"/>
	</g>
</g>
<g>
</g>
<g>
</g>
<g>
</g>
<g>
</g>
<g>
</g>
<g>
</g>
<g>
</g>
<g>
</g>
<g>
</g>
<g>
</g>
<g>
</g>
<g>
</g>
<g>
</g>
<g>
</g>
<g>
</g>
</svg>
