<svg height="511pt" viewBox="0 -47 511.97 511" width="511pt" xmlns="http://www.w3.org/2000/svg"><path d="m27.992188 416.550781h219.984374c22.054688-.007812 40-17.953125 40-40 0-.007812 0-.007812 0-.007812v-11.214844c22.160157-12.113281 128.390626-71.304687 220.765626-142.578125 3.496093-2.703125 4.144531-7.726562 1.449218-11.222656-2.703125-3.496094-7.710937-4.152344-11.222656-1.449219-102.113281 78.792969-221.5625 142.785156-222.761719 143.417969-.335937.175781-.542969.488281-.847656.703125-.457031.328125-.902344.640625-1.28125 1.054687-.34375.394532-.582031.824219-.839844 1.257813-.261719.4375-.527343.847656-.710937 1.335937-.191406.535156-.253906 1.09375-.335938 1.65625-.046875.359375-.214844.679688-.214844 1.054688v15.984375.007812c0 13.222657-10.769531 23.992188-24 24h-194.800781c1.753907-3.648437 2.816407-7.6875 2.816407-12 0-4.421875-3.578126-8-8-8-4.425782 0-8 3.578125-8 8 0 6.617188-5.382813 12-12 12-6.617188 0-12-5.382812-12-12 0-4.609375 2.6875-8.832031 6.847656-10.832031l204.113281-81.734375c1-.410156 1.910156-1.007813 2.679687-1.777344l29.695313-29.71875 33.929687 33.917969c1.558594 1.5625 3.605469 2.34375 5.652344 2.34375 2.050782 0 4.097656-.78125 5.65625-2.34375l73.464844-73.464844c.03125-.03125.066406-.054687.089844-.078125.007812-.007812.007812-.015625.015625-.023437l113.109375-113.113282c1.5625-1.558593 2.347656-3.617187 2.347656-5.664062s-.785156-4.09375-2.347656-5.664062l-33.933594-33.945313 52.3125-52.308594c3.128906-3.128906 3.128906-8.183593 0-11.3125-3.128906-3.128906-8.183594-3.128906-11.3125 0l-52.3125 52.3125c-3.128906-3.128906-8.183594-3.128906-11.3125 0l-113.152344 113.167969c-15.605468 15.589844-40.96875 15.589844-56.558594.007812-3.128906-3.128906-8.183593-3.128906-11.3125 0-1.558593 1.558594-2.34375 3.605469-2.34375 5.65625 0 2.046876.785157 4.09375 2.34375 5.65625l33.945313 33.933594-33.90625 33.929688c-.007813.007812-.023437.007812-.039063.023437-.015624.015625-.015624.03125-.03125.039063l-34.160156 34.183594-202.898437 81.25c-.070313.03125-.109375.085937-.175781.117187-.0625.035156-.160157.027344-.222657.058594-9.832031 4.582031-16.175781 14.550781-16.175781 25.390625-.0078125 15.433594 12.550781 27.992187 27.992188 27.992187zm265.253906-220.550781c14.339844 0 28.683594-5.457031 39.601562-16.378906l107.488282-107.476563c.007812.007813.015624.007813.023437.015625l33.921875 33.925782-107.519531 107.511718c-7.554688 7.539063-17.578125 11.699219-28.242188 11.699219-10.671875 0-20.710937-4.167969-28.273437-11.730469l-17.605469-17.605468c.191406.007812.40625.039062.605469.039062zm5.675781 28.878906c10.582031 10.59375 24.644531 16.425782 39.589844 16.425782.191406 0 .382812-.027344.578125-.035157l-40.179688 40.175781-28.269531-28.269531zm0 0"/></svg>