<svg id="Capa_1" enable-background="new 0 0 480 480" height="512" viewBox="0 0 480 480" width="512" xmlns="http://www.w3.org/2000/svg"><path d="m411.716 229.8c-2.987-27.949-61.194-38.8-86.661-42.183l-2.11 15.86c50.391 6.703 73.055 20.711 73.055 28.523 0 2.954-3.167 6.587-9.25 10.33-5.434-12-28.886-20.138-69.961-24.213l-1.578 15.922c35.562 3.531 52.258 10.406 56.211 13.984-1.914 1.573-4.081 2.811-6.408 3.662-21.215 6.747-53.156 12.15-95.387 12.29-55.832-.271-90.741-9.859-97.057-15.952 4.618-4.234 26.282-12.507 71.907-15.226l-.954-15.969c-31.708 1.887-84.1 8.231-87.224 29.229-10.732-5-16.3-10.126-16.3-14.057 0-10.594 37.188-27.875 104.414-31.383l-.828-15.984c-53.757 2.809-116.13 16.356-119.285 45.123-21.363 53.573-32.325 110.725-32.3 168.4v73.844c0 4.418 3.582 8 8 8h336c4.418 0 8-3.582 8-8v-73.844c-.011-28.885-2.763-57.705-8.219-86.07-5.425-28.122-13.482-55.672-24.065-82.286zm-278.022 20.574c21.946 19.488 78.311 29.626 134.306 29.626.353 0 .7-.014 1.057-.015 1.243.015 2.263.015 2.943.015 8.743 0 67.453-.5 97.835-13.172 13.87-4.4 25.093-9.9 32.474-16.457 7.555 21.099 13.49 42.744 17.753 64.746 5.269 27.366 7.927 55.17 7.938 83.039v25.844h-320v-25.844c-.002-50.372 8.69-100.367 25.694-147.782zm-25.694 213.626v-24h320v24z"/><path d="m220 360c0 26.51 21.49 48 48 48s48-21.49 48-48-21.49-48-48-48c-26.498.029-47.971 21.502-48 48zm40-30.864v14.864h16v-14.864c17.112 4.418 27.402 21.872 22.984 38.984s-21.872 27.402-38.984 22.984-27.402-21.872-22.984-38.984c2.91-11.272 11.712-20.074 22.984-22.984z"/><path d="m217.7 320.438-12.562-9.907c-3.673 4.662-6.817 9.716-9.375 15.071l14.437 6.89c2.044-4.284 4.56-8.327 7.5-12.054z"/><path d="m239.586 302.625-7.125-14.325c-5.308 2.643-10.307 5.866-14.906 9.609l10.093 12.406c3.684-2.996 7.687-5.575 11.938-7.69z"/><path d="m205.562 345.891-15.609-3.516c-1.299 5.785-1.954 11.696-1.953 17.625h16c-.003-4.746.521-9.478 1.562-14.109z"/><path d="m329.969 343.93 15.484-4.032c-1.494-5.738-3.619-11.292-6.336-16.562l-14.217 7.328c2.174 4.221 3.874 8.67 5.069 13.266z"/><path d="m332 360c.001 4.074-.383 8.139-1.148 12.141l15.718 3c.949-4.991 1.428-10.06 1.43-15.141l-.039-2.539-16 .5z"/><path d="m266.984 296.016-.25-16c-5.926.091-11.824.838-17.586 2.226l3.75 15.547c4.616-1.108 9.34-1.703 14.086-1.773z"/><path d="m317.031 318.852 12.25-10.282c-3.806-4.541-8.106-8.644-12.82-12.234l-9.7 12.719c3.773 2.878 7.217 6.164 10.27 9.797z"/><path d="m301.25 287.219c-5.401-2.469-11.061-4.326-16.875-5.539l-3.25 15.672c4.641.96 9.16 2.441 13.469 4.414z"/><path d="m319.531 397.953 12.875 9.5c3.523-4.778 6.505-9.931 8.891-15.367l-14.656-6.422c-1.905 4.348-4.29 8.47-7.11 12.289z"/><path d="m200 400c6.627 0 12-5.373 12-12s-5.373-12-12-12-12 5.373-12 12c.007 6.624 5.376 11.993 12 12z"/><path d="m129.642 122.178c5.37 3.792 11.784 5.826 18.358 5.822h80v8c.007 13.262 10.764 24.007 24.026 24 2.716-.001 5.413-.464 7.974-1.367v49.367c0 13.255 10.745 24 24 24s24-10.745 24-24v-80h24c17.673 0 32-14.327 32-32s-14.327-32-32-32h-128v-3.023c.021-10.407-4.036-20.408-11.3-27.86l-25.7-26.476c-.231-.238-.476-.463-.734-.672-4.826-3.86-10.82-5.965-17-5.969h-42.313c-6.364.009-12.526 2.239-17.422 6.305l-40.431 33.695h-13.1v16h16c1.872.001 3.686-.655 5.125-1.852l42.648-35.548c2.016-1.679 4.556-2.599 7.18-2.6h42.313c2.393.002 4.722.768 6.648 2.188l25.305 26.07c4.362 4.47 6.797 10.473 6.781 16.719v3.023h-20.688l-21.656-21.656c-3.124-3.123-8.188-3.123-11.312 0l-24 24c-3.124 3.125-3.123 8.19.002 11.314 1.5 1.499 3.533 2.342 5.654 2.342h60c6.635.005 12.009 5.388 12.004 12.022 0 .415-.022.83-.066 1.244-.6 6.015-6.352 10.734-13.079 10.734h-42.859c-1.451-.002-2.874.392-4.117 1.141-22.079 13.281-49.687 13.281-71.766 0-1.243-.749-2.666-1.143-4.117-1.141h-16v16h13.844c24.569 14 54.504 14.817 79.8 2.178zm5.67-58.178 4.688-4.688 4.688 4.688zm212.688 32c-.017 8.83-7.17 15.983-16 16h-24v-32h24c8.832.012 15.988 7.168 16 16zm-56-16v128c0 4.418-3.582 8-8 8s-8-3.582-8-8v-72c0-4.418-3.582-8-8-8s-8 3.582-8 8-3.582 8-8 8-8-3.582-8-8v-56zm-64 0v32h-32.914c4.919-4.451 8.039-10.548 8.773-17.141.489-5.102-.427-10.241-2.65-14.859z"/></svg>