<svg id="Layer_5" enable-background="new 0 0 64 64" height="512" viewBox="0 0 64 64" width="512" xmlns="http://www.w3.org/2000/svg"><g><path d="m62.832 13.445c-.339-.508-8.428-12.445-19.832-12.445-9.566 0-32.911 5.134-39.838 6.708-1.273.289-2.162 1.404-2.162 2.711v3.798c0 1.535 1.248 2.783 2.782 2.783.228 0 .444-.026.66-.08 2.861-.708 28.215-6.92 37.558-6.92 9.567 0 18.358 5.774 18.446 5.833l.252.167h2.302v-2.303zm-12.828-4.33c.431-1.157.73-2.501.881-3.95 1.422.768 2.735 1.671 3.91 2.619-.24 1.008-.681 1.873-1.244 2.456-1.105-.408-2.294-.792-3.547-1.125zm-37.032-1.493c-.135 2.496-1.063 4.742-2.416 5.784-.911.211-1.753.408-2.516.588.566-1.576.901-3.499.946-5.527 1.21-.26 2.546-.545 3.986-.845zm2.019-.416c1.285-.263 2.623-.532 3.997-.801-.059 2.168-.588 4.18-1.425 5.434-1.353.292-2.657.58-3.894.858.818-1.515 1.292-3.424 1.322-5.491zm6.009-1.191c1.32-.252 2.657-.501 3.995-.742-.027 2.002-.348 3.89-.882 5.211-1.36.268-2.714.544-4.045.822.592-1.508.93-3.351.932-5.291zm6-1.015v-.081c1.35-.234 2.688-.456 3.995-.661-.025 1.939-.328 3.787-.834 5.106-1.245.213-2.515.443-3.797.685.408-1.457.636-3.205.636-5.049zm6-1v-.045c1.392-.203 2.729-.38 3.991-.526-.041 1.933-.354 3.747-.868 5.032-1.187.15-2.44.33-3.745.536.399-1.448.622-3.181.622-4.997zm5.995-.781c1.489-.137 2.829-.216 3.957-.218-.097 1.861-.459 3.583-1.054 5.001-1.029.004-2.241.081-3.582.212.422-1.43.661-3.162.679-4.995zm5.972-.066c1.39.193 2.727.566 3.991 1.085-.107 1.649-.428 3.192-.915 4.41-1.293-.267-2.638-.461-4.014-.563.517-1.467.841-3.153.938-4.932zm-41.005 11.826c-.444.11-.962-.265-.962-.761v-3.798c0-.368.249-.681.605-.762.723-.164 1.89-.427 3.371-.752-.105 2.266-.603 4.307-1.382 5.674-.761.184-1.328.324-1.632.399zm51.542-3.968c.382-.523.699-1.129.943-1.799 1.742 1.613 3.078 3.182 3.873 4.197-1.052-.61-2.722-1.508-4.816-2.398z"/><path d="m61 61h2v2h-2z"/><path d="m1 61h2v2h-2z"/><path d="m40 25.764-5.658-11.316c-.446-.893-1.343-1.448-2.342-1.448s-1.896.555-2.342 1.447l-5.658 11.317v35.236h-19v2h54v-2h-19zm-2.618-.764h-10.764l2-4h6.764zm.618 2v2h-12v-2zm-6.553-11.659c.211-.421.895-.421 1.105 0l1.83 3.659h-4.764zm-5.447 15.659h12v30h-2v-26h-8v26h-2zm8 30h-4v-24h4z"/></g></svg>