<svg height="512pt" viewBox="-5 0 512 512.002" width="512pt" xmlns="http://www.w3.org/2000/svg"><g fill-rule="evenodd"><path d="m455.855469 270.363281c-4.40625-25.664062-14.433594-49.320312-25.546875-71.34375-.03125-.058593-.058594-.121093-.089844-.179687-4.578125-9.066406-9.339844-17.855469-13.964844-26.398438-15.085937-27.84375-29.332031-54.144531-30.441406-78.074218-2.535156-54.433594 21.003906-75.921876 21.933594-76.746094 3.277344-2.675782 4.4375-7.058594 3.019531-11.042969-1.417969-3.980469-5.269531-6.578125-9.496094-6.578125h-299.726562c-4.230469 0-8.113281 2.566406-9.53125 6.546875-1.421875 3.984375-.296875 8.332031 2.980469 11.007813 1.003906.886718 24.542968 22.378906 22.011718 76.808593-1.113281 23.929688-15.359375 50.230469-30.441406 78.078125-4.628906 8.539063-9.390625 17.332032-13.96875 26.398438-.03125.058594-.058594.117187-.089844.175781-11.816406 23.417969-22.402344 48.679687-26.3125 76.242187-.046875.277344-.085937.558594-.109375.839844-1.390625 10.164063-1.882812 20.640625-1.171875 31.457032 1.210938 18.476562 4.363282 39.375 9.367188 62.121093 1.1875 5.394531 6.519531 8.800781 11.914062 7.617188 5.394532-1.1875 8.804688-6.519531 7.617188-11.914063-4.785156-21.765625-7.792969-41.660156-8.941406-59.132812-.222657-3.375-.296876-6.714844-.265626-10.023438l142.179688 109.25c9.550781 7.339844 21.671875 11.898438 34.625 13.113282v73.417968h-127.519531c-3.667969-9.035156-10.90625-27.476562-18.683594-50.660156-1.757813-5.234375-7.429687-8.054688-12.660156-6.296875-5.238281 1.753906-8.058594 7.421875-6.300781 12.660156 11.371093 33.890625 21.347656 57.257813 21.765624 58.234375 1.578126 3.675782 5.191407 6.0625 9.191407 6.0625h288.414062c4 0 7.617188-2.386718 9.191407-6.0625 1.933593-4.507812 47.394531-111.433594 53.097656-198.382812.832031-12.667969.027344-24.867188-1.957032-36.648438-.023437-.183594-.054687-.363281-.089843-.546875zm-318.875-175.066406c1.6875-36.25-7.125-60.632813-15.464844-75.292969h259.78125c-8.34375 14.660156-17.152344 39.042969-15.464844 75.292969 1.324219 28.5 16.632813 56.757813 32.832031 86.671875 3.375 6.226562 6.765626 12.492188 10.070313 18.808594-36.351563 26.65625-94.355469 42.402344-157.328125 42.402344s-120.976562-15.746094-157.328125-42.402344c3.304687-6.316406 6.695313-12.582032 10.066406-18.808594 16.207031-29.914062 31.511719-58.171875 32.835938-86.671875zm-70.167969 177.402344c3.332031-18.769531 10.09375-36.570313 18.222656-53.816407 39.871094 27.894532 100.867188 44.296876 166.371094 44.296876 65.507812 0 126.5-16.40625 166.371094-44.296876 7.449218 15.804688 13.746094 32.078126 17.3125 49.136719l-159.429688 122.503907c-15.046875 11.5625-41.007812 11.144531-56.691406-.90625zm371.132812 33.550781c-4.726562 72.074219-39.347656 161.859375-49.019531 185.753906h-127.519531v-74.246094c9.929688-1.808593 19.027344-5.683593 26.4375-11.375l150.214844-115.421874c.242187 5.019531.226562 10.109374-.113282 15.289062zm0 0"/><path d="m251.40625 196.621094c5.523438 0 10-4.476563 10-10v-30.445313c0-5.523437-4.476562-10-10-10s-10 4.476563-10 10v30.445313c0 5.523437 4.476562 10 10 10zm0 0"/><path d="m55.933594 110.347656c-3.90625 3.90625-3.90625 10.238282 0 14.140625 1.953125 1.953125 4.511718 2.929688 7.070312 2.929688s5.121094-.976563 7.070313-2.929688c0 0 28.9375-28.9375 28.976562-28.976562 2.253907-2.253907 3.390625-5.601563 2.828125-8.753907-.367187-2.0625-1.328125-3.914062-2.8125-5.402343l-28.992187-28.992188c-3.902344-3.902343-10.234375-3.902343-14.140625 0-3.90625 3.90625-3.90625 10.238281 0 14.144531l11.921875 11.917969h-57.855469c-5.523438 0-10 4.476563-10 10 0 5.523438 4.476562 10 10 10h57.855469zm0 0"/><path d="m492.8125 78.425781h-57.851562l11.917968-11.917969c3.90625-3.90625 3.90625-10.238281 0-14.144531-3.90625-3.902343-10.234375-3.902343-14.140625 0 0 0-28.992187 28.992188-28.992187 28.992188-2.644532 2.640625-3.773438 7.015625-2.355469 10.539062.542969 1.347657 1.335937 2.582031 2.355469 3.601563l28.992187 28.992187c1.953125 1.953125 4.511719 2.929688 7.070313 2.929688s5.117187-.976563 7.070312-2.929688c3.90625-3.902343 3.90625-10.234375 0-14.140625l-11.921875-11.921875h57.855469c5.523438 0 10-4.476562 10-10 0-5.523437-4.476562-10-10-10zm0 0"/><path d="m83.863281 406.3125c0-5.507812-4.492187-10-10-10-5.507812 0-10 4.492188-10 10s4.492188 10 10 10c5.507813 0 10-4.492188 10-10zm0 0"/></g></svg>