<svg id="Capa_1" enable-background="new 0 0 480.005 480.005" height="512" viewBox="0 0 480.005 480.005" width="512" xmlns="http://www.w3.org/2000/svg"><path d="m80.887 122.55-30.547 85.543c-1.546 4.317-2.336 8.868-2.336 13.453v121.008l-47.492 126.64c-1.551 4.137.545 8.748 4.682 10.3.899.337 1.851.51 2.81.509h120c3.67-.001 6.868-2.499 7.758-6.059l18.191-72.833v.052c3.758 44.207 41.485 78.84 85.891 78.84 44.57 0 82.3-34.824 85.89-79.289l.048-.609 18.46 73.839c.891 3.561 4.091 6.06 7.762 6.059h120c4.418.001 8.001-3.58 8.001-7.999 0-.96-.172-1.912-.509-2.81l-47.492-126.64v-121.008c0-4.585-.79-9.136-2.336-13.453l-30.547-85.539c-5.703-15.909-20.772-26.53-37.672-26.551h-11.362l1.917-24v-40c.008-17.665-14.305-31.992-31.97-32-8.623-.004-16.882 3.474-22.905 9.645-10.115-11.668-27.772-12.927-39.439-2.813-.584.506-1.147 1.036-1.687 1.589-10.806-11.052-28.525-11.251-39.577-.445-3.249 3.177-5.676 7.098-7.071 11.423-13.584-7.379-30.578-2.35-37.958 11.234-.827 1.522-1.51 3.117-2.042 4.766-13.584-7.379-30.578-2.349-37.957 11.235-2.228 4.102-3.395 8.696-3.395 13.365l.031 36h-9.476c-16.898.022-31.967 10.641-37.671 26.548zm267.922-10.547h12.64c10.14.016 19.182 6.387 22.61 15.93l30.545 85.543c.927 2.59 1.401 5.32 1.4 8.07v122.457c0 .959.172 1.911.508 2.809l43.945 117.191h-102.211l-30.695-122.664-46.594-132c-.632-1.789-.954-3.673-.953-5.57v-3.043c-.001-9.236 7.486-16.724 16.722-16.724 6.334 0 12.125 3.578 14.958 9.243l49.164 98.336 14.312-7.156-34.6-69.2zm-204.805-52c0-6.627 5.373-12 12-12s12 5.373 12 12v20h16v-36c0-6.627 5.373-12 12-12s12 5.373 12 12v28h16v-44c0-6.627 5.373-12 12-12s12 5.373 12 12v36h16v-36c0-6.627 5.373-12 12-12s12 5.373 12 12v36h16v-32c0-8.837 7.163-16 16-16s16 7.163 16 16l.023 39.363-9.3 116.179-.728-1.456c-8.081-16.166-27.736-22.72-43.902-14.64-11.09 5.543-18.095 16.878-18.093 29.277v3.043c-.001 3.709.627 7.391 1.859 10.89l46.383 131.285 1.363 5.454-3.824 48.039c-3.101 36.372-33.433 64.375-69.937 64.566-36.164 0-66.891-28.2-69.953-64.2l-3.974-46.612 1.63-6.525 46.594-132.016c1.232-3.495 1.861-7.175 1.859-10.881v-3.043c0-18.073-14.651-32.724-32.724-32.724-12.394 0-23.724 7.002-29.268 18.087l-1.985 3.969-8.023-94.055zm-5.689 157.483-33.467 66.939 14.312 7.156 49.164-98.336c4.131-8.261 14.176-11.608 22.437-7.477 5.665 2.833 9.244 8.624 9.243 14.958v3.043c.002 1.895-.321 3.776-.953 5.562l-46.805 132.731-30.492 121.941h-102.203l43.945-117.191c.336-.898.508-1.85.508-2.809v-122.457c-.001-2.75.473-5.48 1.4-8.07l30.547-85.547c3.43-9.54 12.47-15.909 22.608-15.926h10.78z"/><path d="m223.723 176.855.851 2.125 14.86-5.954-.852-2.121c-10.209-25.533-37.185-40.144-64.148-34.746l3.14 15.688c19.4-3.879 38.805 6.637 46.149 25.008z"/><path d="m232.004 207.214c-5.308 26.98 5.254 54.622 27.2 71.189l9.594-12.8c-17.031-12.857-25.227-34.309-21.109-55.247l.156-.777-15.688-3.156z"/></svg>