<?xml version="1.0" encoding="iso-8859-1"?>
<!-- Generator: Adobe Illustrator 19.0.0, SVG Export Plug-In . SVG Version: 6.00 Build 0)  -->
<svg version="1.1" id="Capa_1" xmlns="http://www.w3.org/2000/svg" xmlns:xlink="http://www.w3.org/1999/xlink" x="0px" y="0px"
	 viewBox="0 0 511.998 511.998" style="enable-background:new 0 0 511.998 511.998;" xml:space="preserve">
<g>
	<g>
		<path d="M510.264,242.912l-80.29-117.926c-16.791-24.66-41.714-43.157-70.181-52.084c-28.468-8.925-59.49-7.973-87.355,2.686
			l-73.313,28.041c-5.159,1.973-7.74,7.753-5.768,12.911c1.973,5.158,7.754,7.737,12.912,5.768l73.313-28.041
			c49.182-18.808,104.226-1.55,133.861,41.975l49.315,72.43l-88.5-62.331c-18.548-13.064-42.442-16.492-63.917-9.168L44.058,227.986
			c-9.268,3.166-19.456-1.783-22.706-11.022c-4.16-11.825,1.753-24.598,13.462-29.076l91.624-35.045
			c5.159-1.973,7.74-7.753,5.768-12.911c-1.974-5.159-7.756-7.738-12.912-5.768L27.669,169.21
			C5.766,177.587-5.295,201.478,2.485,223.6c6.874,19.543,28.418,30.004,48.028,23.314l266.285-90.812
			c15.435-5.265,32.611-2.801,45.946,6.59l133.499,94.024c1.738,1.224,3.751,1.824,5.755,1.824c2.552,0,5.088-0.974,7.017-2.873
			C512.457,252.276,512.984,246.907,510.264,242.912z"/>
	</g>
</g>
<g>
	<g>
		<path d="M172.337,120.219c-1.86-1.87-4.44-2.93-7.069-2.93c-2.63,0-5.21,1.06-7.069,2.93c-1.86,1.86-2.93,4.431-2.93,7.069
			c0,2.63,1.07,5.21,2.93,7.069c1.86,1.86,4.44,2.93,7.069,2.93c2.63,0,5.21-1.07,7.069-2.93c1.86-1.86,2.93-4.44,2.93-7.069
			C175.267,124.648,174.197,122.079,172.337,120.219z"/>
	</g>
</g>
<g>
	<g>
		<path d="M431.455,338.699l-0.379-0.117c-12.038-3.736-22.399-11.22-29.706-21.331c7.503-6.046,14.737-12.514,21.647-19.424
			c3.905-3.905,3.905-10.236,0-14.142c-3.904-3.904-10.236-3.904-14.141,0c-39.216,39.217-89.308,63.603-143.474,70.352
			c-0.363,0.025-0.721,0.067-1.073,0.129c-9.855,1.185-19.841,1.792-29.921,1.793c-0.005,0-0.01-0.001-0.016-0.001
			c-0.006,0-0.01,0.001-0.016,0.001c-10.08,0-20.066-0.608-29.922-1.793c-0.352-0.063-0.709-0.105-1.073-0.129
			c-54.166-6.749-104.258-31.135-143.474-70.352c-3.905-3.903-10.236-3.904-14.141,0c-3.905,3.905-3.905,10.236,0,14.142
			c6.91,6.91,14.144,13.379,21.647,19.424c-7.306,10.111-17.665,17.596-29.693,21.327l-0.392,0.121
			c-5.277,1.63-8.233,7.228-6.603,12.505c1.326,4.294,5.281,7.051,9.55,7.051c0.978,0,1.972-0.145,2.954-0.448l0.405-0.125
			c16.108-4.999,29.982-14.988,39.806-28.477c3.42,2.357,6.887,4.631,10.402,6.818c-4.883,15.322-16.312,27.703-31.471,33.717
			l-3.096,1.227c-5.134,2.036-7.644,7.848-5.609,12.981c1.556,3.925,5.318,6.315,9.297,6.315c1.227,0,2.474-0.228,3.684-0.707
			l3.099-1.229c19.451-7.717,34.442-23.074,41.769-42.233c3.841,1.998,7.726,3.899,11.655,5.703
			c-1.146,17.147-11.06,32.453-26.451,40.483l-0.596,0.311c-4.897,2.553-6.797,8.592-4.245,13.489
			c1.783,3.421,5.267,5.379,8.874,5.379c1.557,0,3.138-0.365,4.614-1.135l0.599-0.312c19.636-10.245,32.918-28.919,36.399-50.301
			c4.241,1.555,8.521,3.005,12.842,4.342c-0.572,15.861-6.722,30.936-17.489,42.682c-3.732,4.071-3.457,10.395,0.615,14.128
			c1.92,1.76,4.34,2.628,6.753,2.628c2.706,0,5.403-1.092,7.374-3.243c12.958-14.137,20.776-31.984,22.453-50.916
			c5.747,1.302,11.552,2.405,17.404,3.326c-1.296,15.361-6.01,30.299-13.852,43.645l-1.346,2.291
			c-2.797,4.762-1.204,10.889,3.558,13.687c1.591,0.934,3.334,1.379,5.056,1.379c3.43,0,6.768-1.767,8.631-4.938l1.345-2.289
			c9.242-15.728,14.846-33.31,16.476-51.402c4.052,0.332,8.122,0.571,12.208,0.721v59.408c0,5.522,4.477,9.999,9.999,9.999
			s9.999-4.478,9.999-9.999v-59.408c4.087-0.15,8.156-0.389,12.208-0.721c1.63,18.09,7.233,35.674,16.475,51.4l1.346,2.291
			c1.863,3.172,5.202,4.938,8.631,4.938c1.721,0,3.465-0.445,5.056-1.379c4.762-2.798,6.354-8.925,3.558-13.687l-1.347-2.293
			c-7.841-13.344-12.555-28.284-13.851-43.643c5.852-0.922,11.657-2.024,17.404-3.326c1.676,18.931,9.495,36.779,22.453,50.916
			c1.972,2.151,4.668,3.243,7.374,3.243c2.414,0,4.834-0.869,6.753-2.628c4.071-3.732,4.347-10.057,0.615-14.128
			c-10.766-11.746-16.917-26.823-17.489-42.682c4.321-1.337,8.601-2.786,12.842-4.342c3.481,21.383,16.764,40.057,36.402,50.302
			l0.596,0.311c1.477,0.77,3.057,1.135,4.614,1.135c3.608,0,7.091-1.959,8.874-5.379c2.553-4.897,0.653-10.937-4.245-13.489
			l-0.593-0.31c-15.394-8.03-25.308-23.337-26.454-40.484c3.93-1.804,7.815-3.705,11.655-5.703
			c7.326,19.159,22.317,34.516,41.77,42.234l3.098,1.229c1.21,0.479,2.457,0.707,3.684,0.707c3.979,0,7.741-2.393,9.297-6.315
			c2.036-5.134-0.475-10.945-5.609-12.981l-3.096-1.228c-15.16-6.015-26.59-18.396-31.472-33.718
			c3.515-2.187,6.982-4.461,10.402-6.818c9.824,13.49,23.699,23.479,39.819,28.481l0.392,0.121c0.983,0.304,1.977,0.448,2.954,0.448
			c4.27,0,8.224-2.758,9.55-7.051C439.688,345.927,436.733,340.329,431.455,338.699z"/>
	</g>
</g>
<g>
</g>
<g>
</g>
<g>
</g>
<g>
</g>
<g>
</g>
<g>
</g>
<g>
</g>
<g>
</g>
<g>
</g>
<g>
</g>
<g>
</g>
<g>
</g>
<g>
</g>
<g>
</g>
<g>
</g>
</svg>
